#N canvas 485 65 955 807 12;
#X obj 59 182 sig~;
#X obj 54 307 snapshot~;
#X floatatom 54 348 5 0 0 0 - - - 0;
#X obj 260 241 metro 100;
#X obj 261 195 loadbang;
#X text 14 96 (c) Stefano Fasciani \, 2019;
#X obj 61 145 tgl 15 0 empty empty empty 17 7 0 10 #fcfcfc #000000
#000000 0 1;
#X obj 188 311 bng 15 250 50 0 empty empty empty 17 7 0 10 #fcfcfc
#000000 #000000;
#X obj 305 311 bng 15 250 50 0 empty empty empty 17 7 0 10 #fcfcfc
#000000 #000000;
#X floatatom 164 171 5 0 0 0 - - - 0;
#X text 17 7 debouncesig~ debounces a a signal ranging between 0 and
1 \, returning also separate bangs for 0-to-1 and 1-to-0 transitions
, f 123;
#X text 19 71 outlets: debounced signal \, bang on rising 0-to-1 transition
\, bang on 1-to-0 trasition, f 86;
#X text 18 27 arguments: debounce time in milliseconds;
#X text 18 47 inlets: signal (in range 0-1) \, debounce time in milliseconds
, f 85;
#X obj 57 231 sfalib/debouncesig~ 100;
#X connect 0 0 14 0;
#X connect 1 0 2 0;
#X connect 3 0 1 0;
#X connect 4 0 3 0;
#X connect 6 0 0 0;
#X connect 9 0 14 1;
#X connect 14 0 1 0;
#X connect 14 1 7 0;
#X connect 14 2 8 0;
