#N canvas 920 268 711 492 12;
#X obj 84 121 inlet~;
#X obj 213 356 outlet;
#X obj 188 108 inlet;
#X obj 327 358 outlet;
#X obj 79 320 sig~;
#X obj 79 357 outlet~;
#X msg 84 257 1;
#X msg 173 263 0;
#X obj 298 80 loadbang;
#X obj 292 117 i \$1;
#X obj 87 193 threshold~;
#X msg 190 161 set 0.9 \$1 0.1 \$1;
#X connect 0 0 10 0;
#X connect 2 0 11 0;
#X connect 4 0 5 0;
#X connect 6 0 4 0;
#X connect 7 0 4 0;
#X connect 8 0 9 0;
#X connect 9 0 11 0;
#X connect 10 0 1 0;
#X connect 10 0 6 0;
#X connect 10 1 3 0;
#X connect 10 1 7 0;
#X connect 11 0 10 0;
