#N canvas 1060 147 770 741 12;
#X obj 111 253 *~;
#X obj 175 104 select 0 1;
#X obj 96 50 inlet~;
#X obj 113 315 outlet~;
#X msg 148 176 0 \$1;
#X msg 190 177 1 \$1;
#X obj 279 52 inlet;
#X obj 154 143 i \$1;
#X obj 170 49 inlet;
#X obj 283 141 i \$1;
#X obj 140 222 vline~;
#X connect 0 0 3 0;
#X connect 1 0 7 0;
#X connect 1 1 9 0;
#X connect 2 0 0 0;
#X connect 4 0 10 0;
#X connect 5 0 10 0;
#X connect 6 0 9 1;
#X connect 6 0 7 1;
#X connect 7 0 4 0;
#X connect 8 0 1 0;
#X connect 9 0 5 0;
#X connect 10 0 0 1;
