#N canvas 0 65 955 807 12;
#X floatatom 60 143 5 0 0 0 - - - 0;
#X obj 59 182 sig~;
#X obj 55 337 snapshot~;
#X floatatom 55 374 5 0 0 0 - - - 0;
#X obj 179 299 metro 100;
#X obj 180 267 loadbang;
#X text 19 71 outlets: scaled signal;
#X text 14 97 (c) Stefano Fasciani \, 2020;
#X text 18 27 arguments: input_min input_max output_min output_max
scaling_curve, f 67;
#X text 18 47 inlets: signal input_min input_max output_min output_max
scaling_curve, f 72;
#X text 17 7 scalesiglog~ scales logarithmically a signal from input
to output range using a logarithmic scaling curve, f 106;
#X floatatom 253 177 5 0 0 0 - - - 0;
#X text 301 156 scaling_curve: when between -1 and 1 the scaling is
nearly linear \, when greater than 1 is an expansion-compression \,
when less than -1 is a compression-expansion;
#X obj 57 231 sfalib/scalesiglog~ 0 16 0.5 2.5 5;
#X connect 0 0 1 0;
#X connect 1 0 13 0;
#X connect 2 0 3 0;
#X connect 4 0 2 0;
#X connect 5 0 4 0;
#X connect 11 0 13 5;
#X connect 13 0 2 0;
