#N canvas 436 324 964 551 12;
#X obj 70 38 inlet~;
#X obj 93 504 outlet~;
#X obj 541 88 f \$1;
#X obj 658 35 loadbang;
#X obj 595 87 f \$2;
#X obj 641 88 f \$3;
#X obj 687 88 f \$4;
#X obj 140 40 inlet;
#X obj 208 42 inlet;
#X obj 281 44 inlet;
#X obj 351 46 inlet;
#X obj 413 46 inlet;
#X obj 739 88 f \$5;
#X obj 90 362 expr~ (exp((($v1-$f2)/($f3-$f2)-1)*$f6)-1)/(exp(-$f6)-1)*($f4-$f5)+$f5
, f 72;
#X connect 0 0 13 0;
#X connect 2 0 13 1;
#X connect 3 0 2 0;
#X connect 3 0 4 0;
#X connect 3 0 5 0;
#X connect 3 0 6 0;
#X connect 3 0 12 0;
#X connect 4 0 13 2;
#X connect 5 0 13 3;
#X connect 6 0 13 4;
#X connect 7 0 13 1;
#X connect 8 0 13 2;
#X connect 9 0 13 3;
#X connect 10 0 13 4;
#X connect 11 0 13 5;
#X connect 12 0 13 5;
#X connect 13 0 1 0;
