#N canvas 204 70 1414 1103 10;
#X obj 122 967 f;
#X obj 122 -24 inlet;
#X obj 122 1053 outlet;
#X obj 158 689 t a a;
#X obj 256 898 /;
#X obj 256 868 swap;
#X obj 205 837 select 0;
#N canvas 286 344 401 287 sum(mi*i) 0;
#X obj 126 138 +;
#X obj 153 139 f;
#X msg 168 88 0;
#X obj 126 66 inlet;
#X obj 168 66 inlet;
#X obj 126 171 outlet;
#X obj 126 103 *;
#X connect 0 0 1 0;
#X connect 0 0 5 0;
#X connect 1 0 0 1;
#X connect 2 0 0 1;
#X connect 3 0 6 0;
#X connect 4 0 2 0;
#X connect 6 0 0 0;
#X restore 279 747 pd sum(mi*i);
#N canvas 573 330 450 328 sum(mi) 0;
#X obj 179 137 +;
#X obj 206 138 f;
#X msg 296 77 0;
#X obj 179 55 inlet;
#X obj 296 55 inlet;
#X obj 179 170 outlet;
#X text 143 34 in: (idx value);
#X text 40 89 swap to: (val idx);
#X text 67 172 sum of values;
#X obj 179 89 swap;
#X connect 0 0 1 0;
#X connect 0 0 5 0;
#X connect 1 0 0 1;
#X connect 2 0 0 1;
#X connect 3 0 9 0;
#X connect 4 0 2 0;
#X connect 9 0 0 0;
#X restore 158 745 pd sum(mi);
#X obj 205 1051 outlet;
#X obj 122 891 spigot 1;
#X obj 140 777 f;
#X obj 235 1020 print list-centroid;
#X obj 205 960 t b b;
#X msg 235 995 warning: sum of items equals 0: centroid is undefined!;
#X obj 122 0 t b b a b b;
#X obj 376 80 t a b;
#N canvas 473 338 450 300 count 0;
#X obj 131 154 f 0;
#X obj 156 153 + 1;
#X msg 147 133 0;
#X obj 131 183 outlet;
#X obj 131 59 inlet;
#X obj 131 96 b;
#X obj 178 61 inlet;
#X obj 178 98 b;
#X connect 0 0 1 0;
#X connect 0 0 3 0;
#X connect 1 0 0 1;
#X connect 2 0 0 1;
#X connect 4 0 5 0;
#X connect 5 0 0 0;
#X connect 6 0 7 0;
#X connect 7 0 2 0;
#X restore 501 654 pd count;
#X obj 422 612 t a b;
#X obj 422 680 list prepend;
#X obj 320 199 t a a;
#X obj 320 356 spigot;
#X obj 359 264 bang;
#X obj 359 283 1;
#X obj 480 264 route bang;
#X obj 440 265 bang;
#X obj 440 284 0;
#X obj 359 229 list split 2;
#X obj 489 494 list split;
#X obj 556 443 list length;
#X obj 556 465 >> 1;
#X obj 319 388 t a a a a;
#X obj 320 561 list split;
#X obj 387 513 list length;
#X obj 387 538 >> 1;
#X obj 288 168 t b a;
#X text 547 31 This is an adaptation from the collection of Pd externals "list-abs" that integrares of list-centroid and list-enumerate by Frank Barknecht \, and list-drip by Mathieu Bouchard;
#X connect 0 0 2 0;
#X connect 1 0 15 0;
#X connect 3 0 8 0;
#X connect 3 1 7 0;
#X connect 4 0 0 1;
#X connect 5 0 4 0;
#X connect 5 1 4 1;
#X connect 6 0 13 0;
#X connect 6 1 5 0;
#X connect 7 0 5 1;
#X connect 8 0 11 1;
#X connect 10 0 0 0;
#X connect 11 0 6 0;
#X connect 11 0 10 1;
#X connect 13 0 9 0;
#X connect 13 1 14 0;
#X connect 14 0 12 0;
#X connect 15 0 10 0;
#X connect 15 1 11 0;
#X connect 15 2 16 0;
#X connect 15 3 8 1;
#X connect 15 4 7 1;
#X connect 16 0 35 0;
#X connect 16 1 17 1;
#X connect 17 0 19 1;
#X connect 18 0 19 0;
#X connect 18 1 17 0;
#X connect 19 0 3 0;
#X connect 20 0 21 0;
#X connect 20 1 27 0;
#X connect 21 0 31 0;
#X connect 22 0 23 0;
#X connect 23 0 21 1;
#X connect 24 1 18 0;
#X connect 25 0 26 0;
#X connect 26 0 21 1;
#X connect 27 0 22 0;
#X connect 27 2 24 0;
#X connect 27 2 25 0;
#X connect 28 0 20 0;
#X connect 29 0 30 0;
#X connect 30 0 28 1;
#X connect 31 0 32 0;
#X connect 31 1 33 0;
#X connect 31 2 28 0;
#X connect 31 3 29 0;
#X connect 32 1 20 0;
#X connect 33 0 34 0;
#X connect 34 0 32 1;
#X connect 35 1 20 0;
