#N canvas 1693 176 1436 1147 10;
#X floatatom 70 714 5 0 0 0 centroid - - 0;
#X text 17 35 centroid = sum(mi * i) / sum(mi);
#X text 19 63 where the index i starts from 0;
#X text 19 94 Negative values are possible.;
#X text 15 290 Stefano Fasciani \, 2023;
#X obj 70 685 sfapdlib/centroidlist30;
#X obj 480 555 list length;
#X text 16 7 centroidlist computes the centroid or center of mass of a list of 30 floating point numbers according to, f 121;
#X text 14 229 inlets: list of 30 floats, f 26;
#X text 16 253 outlets: centroid float value, f 30;
#X text 17 157 If the list is longer than 30 \, extra floats are ignored (safe), f 62;
#X text 17 122 This is an efficient implementation and no checks are performed on the input list or result, f 92;
#X text 561 554 external check for light lenght, f 34;
#X obj 683 598 < 30;
#X obj 444 593 > 30;
#X obj 444 621 select 1;
#X obj 444 683 print;
#X msg 444 644 bad list lenght (safe result);
#X obj 683 621 select 1;
#X text 664 479 these 2 lists have wrong lenght, f 32;
#X msg 467 486 1 0.7 1 0.3 0.4 1;
#X msg 40 357 1 0.7 1 0.3 0.4 1 0 0 0 0 0 0 0 0 0 0 0 0 0 0 0 0 0 0 0 0 0 0 0 0, f 66;
#X msg 306 435 1 0.7 1 0.3 0.4 1 0 0 0 0 0 0 0 0 0 0 0 0 0 0 0 0 0 0 0 0 0 0 0 0 0 0 0 0 0 0 0 0 0 0 0 0;
#X msg 682 644 bad list lenght (unsafe result);
#X text 15 182 If the list is shorter than 30 result may be wrong (as the object remembers elements from previous "longer" lists"), f 93;
#X text 459 356 list of 30 elements, f 21;
#X connect 5 0 0 0;
#X connect 6 0 14 0;
#X connect 6 0 13 0;
#X connect 13 0 18 0;
#X connect 14 0 15 0;
#X connect 15 0 17 0;
#X connect 17 0 16 0;
#X connect 18 0 23 0;
#X connect 20 0 5 0;
#X connect 20 0 6 0;
#X connect 21 0 6 0;
#X connect 21 0 5 0;
#X connect 22 0 5 0;
#X connect 22 0 6 0;
#X connect 23 0 16 0;
