#N canvas 204 70 1414 1103 10;
#X obj 122 -24 inlet;
#X obj 122 148 outlet;
#X obj 122 25 unpack f f f f f f f f f f f f f f f f f f f f f f f f f f f f f f, f 113;
#X obj 123 61 expr (($f1 * 1 + $f2 * 2 + $f3 * 3 + $f4 * 4 + $f5 * 5 + $f6 * 6 + $f7 * 7 + $f8 * 8 + $f9 * 9 + $f10 * 10 + $f11 * 11 + $f12 * 12 + $f13 * 13 + $f14 * 14 + $f15 * 15 + $f16 * 16 + $f17 * 17 + $f18 * 18 + $f19 * 19 + $f20 * 20 + $f21 * 21 + $f22 * 22 + $f23 * 23 + $f24 * 24 + $f25 * 25 + $f26 * 26 + $f27 * 27 + $f28 * 28 + $f29 * 29 + $f30 * 30) / ($f1 + $f2 + $f3 + $f4 + $f5 + $f6 + $f7 + $f8 + $f9 + $f10 + $f11 + $f12 + $f13 + $f14 + $f15 + $f16 + $f17 + $f18 + $f19 + $f20 + $f21 + $f22 + $f23 + $f24 + $f25 + $f26 + $f27 + $f28 + $f29 + $f30)) - 1, f 113;
#X connect 0 0 2 0;
#X connect 2 0 3 0;
#X connect 2 1 3 1;
#X connect 2 2 3 2;
#X connect 2 3 3 3;
#X connect 2 4 3 4;
#X connect 2 5 3 5;
#X connect 2 6 3 6;
#X connect 2 7 3 7;
#X connect 2 8 3 8;
#X connect 2 9 3 9;
#X connect 2 10 3 10;
#X connect 2 11 3 11;
#X connect 2 12 3 12;
#X connect 2 13 3 13;
#X connect 2 14 3 14;
#X connect 2 15 3 15;
#X connect 2 16 3 16;
#X connect 2 17 3 17;
#X connect 2 18 3 18;
#X connect 2 19 3 19;
#X connect 2 20 3 20;
#X connect 2 21 3 21;
#X connect 2 22 3 22;
#X connect 2 23 3 23;
#X connect 2 24 3 24;
#X connect 2 25 3 25;
#X connect 2 26 3 26;
#X connect 2 27 3 27;
#X connect 2 28 3 28;
#X connect 2 29 3 29;
#X connect 3 0 1 0;
