#N canvas 485 65 955 807 12;
#X obj 108 551 snapshot~;
#X floatatom 109 585 5 0 0 0 - - - 0;
#X obj 351 517 metro 100;
#X obj 376 468 loadbang;
#X text 14 97 (c) Stefano Fasciani \, 2020;
#X text 17 7 deltasig~ calculates the differential of a signal, f 50;
#X text 18 27 arguments:;
#X text 18 47 inlets: signal;
#X text 19 71 outlets: differential;
#X obj 107 417 abs~;
#X obj 200 421 abs~;
#X obj 107 468 *~ 0.1;
#X obj 177 277 lop~ 5;
#X obj 203 474 *~ 0.001;
#X obj 203 513 lop~ 20;
#X obj 169 239 sig~;
#X obj 206 558 snapshot~;
#X floatatom 208 590 5 0 0 0 - - - 0;
#X text 31 569 velocity;
#X text 279 578 acceleration;
#X text 321 323 computing velocity;
#X text 323 378 computing acceleration;
#X obj 174 197 hsl 128 15 0 1 0 0 empty empty empty -2 -8 0 10 #fcfcfc #000000 #000000 0 1;
#X obj 177 321 sfapdlib/deltasig~;
#X obj 180 376 sfapdlib/deltasig~;
#X connect 0 0 1 0;
#X connect 2 0 0 0;
#X connect 2 0 16 0;
#X connect 3 0 2 0;
#X connect 9 0 11 0;
#X connect 10 0 13 0;
#X connect 11 0 0 0;
#X connect 12 0 23 0;
#X connect 13 0 14 0;
#X connect 14 0 16 0;
#X connect 15 0 12 0;
#X connect 16 0 17 0;
#X connect 22 0 15 0;
#X connect 23 0 9 0;
#X connect 23 0 24 0;
#X connect 24 0 10 0;
