#N canvas 485 65 955 807 12;
#X text 14 124 (c) Stefano Fasciani \, 2020;
#N canvas 0 22 450 278 (subpatch) 0;
#X array array99 2000 float 0;
#X coords 0 1.2 1999 -0.2 200 100 1 0 0;
#X restore 70 413 graph;
#X obj 75 336 metro 500;
#X obj 59 360 tabwrite~ array99;
#X floatatom 59 195 5 0 1 0 - - - 0;
#X obj 129 296 loadbang;
#X obj 62 168 hsl 128 15 0 1 0 0 empty empty empty -2 -8 0 10 #fcfcfc #000000 #000000 0 1;
#X text 18 74 inlets: pwm duty cycle (between 0 (0%) and 1 (100%);
#X obj 60 225 sig~;
#X text 18 48 arguments: pwm frequency (should be in the range 25 to 100 Hz to control an LED), f 113;
#X text 19 98 outlets: pwm signal to drive LED or Motor;
#X text 18 18 pwm~ generates a pwm signal to control \, for example \, the brightess of an LED or the speed of a DC motor connectd to an output, f 126;
#X obj 60 259 sfapdlib/pwmsig~ 50;
#X connect 2 0 3 0;
#X connect 4 0 8 0;
#X connect 5 0 2 0;
#X connect 6 0 4 0;
#X connect 8 0 12 0;
#X connect 12 0 3 0;
