#N canvas 495 386 917 430 12;
#X obj 93 273 lop~ 12000;
#X obj 92 334 outlet~;
#X obj 94 72 f \$1;
#X obj 93 23 loadbang;
#X obj 94 114 phasor~;
#X obj 92 178 expr~ $v1 < $v2;
#X obj 197 23 inlet~;
#X connect 0 0 1 0;
#X connect 2 0 4 0;
#X connect 3 0 2 0;
#X connect 4 0 5 0;
#X connect 5 0 0 0;
#X connect 6 0 5 1;
