#N canvas 408 292 730 520 12;
#X obj 70 38 inlet~;
#X obj 64 195 outlet~;
#X obj 468 85 f \$1;
#X obj 577 33 loadbang;
#X obj 514 85 f \$2;
#X obj 560 86 f \$3;
#X obj 606 86 f \$4;
#X obj 140 40 inlet;
#X obj 208 42 inlet;
#X obj 281 44 inlet;
#X obj 351 46 inlet;
#X obj 62 132 expr~ ($v1-$f2) * ($f4-$f5) / ($f2-$f3) + $f4;
#X connect 0 0 11 0;
#X connect 2 0 11 1;
#X connect 3 0 2 0;
#X connect 3 0 4 0;
#X connect 3 0 5 0;
#X connect 3 0 6 0;
#X connect 4 0 11 2;
#X connect 5 0 11 3;
#X connect 6 0 11 4;
#X connect 7 0 11 1;
#X connect 8 0 11 2;
#X connect 9 0 11 3;
#X connect 10 0 11 4;
#X connect 11 0 1 0;
